<svg width="48" height="48" viewBox="0 0 48 48" fill="none" xmlns="http://www.w3.org/2000/svg">
<g clip-path="url(#clip0_110049_734)">
<path d="M38.0517 2.09001C31.8824 1.44159 26.3358 5.93317 25.6873 12.1024L24.5604 22.8246C24.4792 23.597 25.0396 24.289 25.8119 24.3702L26.2781 24.4192L25.1022 35.6075C24.5618 40.7486 28.3048 45.3708 33.4459 45.9111C38.5869 46.4515 43.2091 42.7085 43.7495 37.5674L44.9254 26.3791L45.3916 26.4281C46.164 26.5092 46.856 25.9489 46.9371 25.1765L48.0641 14.4543C48.7125 8.28506 44.2209 2.73842 38.0517 2.09001ZM37.7577 4.8871C42.3846 5.37341 45.7533 9.53339 45.267 14.1603L44.875 17.8898L28.0924 16.1259L28.4844 12.3964C28.9707 7.76947 33.1307 4.40079 37.7577 4.8871ZM27.5045 21.7201L27.7985 18.923L44.581 20.6869L44.287 23.484L27.5045 21.7201ZM40.9524 37.2735C40.5741 40.8722 37.3386 43.4923 33.7399 43.114C30.1411 42.7358 27.521 39.5003 27.8993 35.9015L29.0752 24.7131L42.1283 26.0851L40.9524 37.2735Z" fill="#FF5A30"/>
<path d="M32.169 40.1218L35.8985 40.5138C36.6708 40.595 37.3628 40.0346 37.444 39.2622C37.5252 38.4899 36.9648 37.7979 36.1925 37.7167L32.463 37.3247C31.6906 37.2435 30.9986 37.8039 30.9175 38.5763C30.8363 39.3487 31.3966 40.0406 32.169 40.1218Z" fill="#FF5A30"/>
<path d="M9.94618 2.08968C3.77692 2.7381 -0.714658 8.28473 -0.0662423 14.454L1.06071 25.1762C1.14188 25.9486 1.83387 26.5089 2.60624 26.4277L3.07243 26.3787L4.24837 37.5671C4.78872 42.7082 9.41091 46.4511 14.552 45.9108C19.693 45.3705 23.436 40.7483 22.8957 35.6072L21.7197 24.4188L22.1859 24.3698C22.9583 24.2887 23.5186 23.5967 23.4374 22.8243L22.3105 12.1021C21.6621 5.93284 16.1155 1.44126 9.94618 2.08968ZM3.7108 23.4837L3.41682 20.6866L20.1994 18.9226L20.4934 21.7197L3.7108 23.4837ZM20.0986 35.9012C20.4768 39.4999 17.8567 42.7355 14.258 43.1137C10.6592 43.492 7.42371 40.8719 7.04547 37.2731L5.86952 26.0848L18.9226 24.7128L20.0986 35.9012ZM19.9054 16.1255L3.12283 17.8895L2.73085 14.16C2.24454 9.53306 5.61322 5.37308 10.2402 4.88677C14.8671 4.40046 19.0271 7.76914 19.5134 12.3961L19.9054 16.1255Z" fill="#FF5A30"/>
<path d="M12.0988 40.5134L15.8282 40.1214C16.6006 40.0402 17.161 39.3482 17.0798 38.5759C16.9986 37.8035 16.3066 37.2431 15.5343 37.3243L11.8048 37.7163C11.0324 37.7975 10.4721 38.4895 10.5532 39.2618C10.6344 40.0342 11.3264 40.5946 12.0988 40.5134Z" fill="#FF5A30"/>
</g>
<defs>
<clipPath id="clip0_110049_734">
<rect width="48" height="48" fill="white"/>
</clipPath>
</defs>
</svg>
