<svg width="156" height="156" viewBox="0 0 156 156" fill="none" xmlns="http://www.w3.org/2000/svg">
<g clip-path="url(#clip0_2111_1789)" filter="url(#filter0_d_2111_1789)">
<circle opacity="0.3" cx="78" cy="74" r="71" stroke="#F52F6E" stroke-width="6"/>
<path d="M78 142C115.555 142 146 111.555 146 74C146 36.4446 115.555 6 78 6V0C118.869 0 152 33.1309 152 74C152 114.869 118.869 148 78 148C37.1309 148 4 114.869 4 74H10C10 111.555 40.4446 142 78 142Z" fill="#F52F6E"/>
<path d="M75.1845 69.648C75.1845 70.4587 75.0245 71.2373 74.7045 71.984C74.3845 72.7307 73.9685 73.456 73.4565 74.16C72.9445 74.8427 72.3685 75.504 71.7285 76.144C71.0885 76.784 70.4592 77.392 69.8405 77.968C69.5205 78.2667 69.1685 78.608 68.7845 78.992C68.4218 79.3547 68.0698 79.728 67.7285 80.112C67.3872 80.496 67.0778 80.8587 66.8005 81.2C66.5445 81.52 66.3845 81.7867 66.3205 82H75.8565V86H61.0725C61.0298 85.7653 61.0085 85.4667 61.0085 85.104C61.0085 84.7413 61.0085 84.4853 61.0085 84.336C61.0085 83.312 61.1685 82.3733 61.4885 81.52C61.8298 80.6667 62.2672 79.8773 62.8005 79.152C63.3338 78.4053 63.9312 77.712 64.5925 77.072C65.2752 76.432 65.9472 75.792 66.6085 75.152C67.1205 74.6613 67.6005 74.2027 68.0485 73.776C68.4965 73.328 68.8912 72.9013 69.2325 72.496C69.5738 72.0693 69.8405 71.6533 70.0325 71.248C70.2245 70.8213 70.3205 70.3947 70.3205 69.968C70.3205 69.0293 70.0538 68.368 69.5205 67.984C68.9872 67.6 68.3258 67.408 67.5365 67.408C66.9605 67.408 66.4165 67.504 65.9045 67.696C65.4138 67.8667 64.9552 68.08 64.5285 68.336C64.1232 68.5707 63.7712 68.816 63.4725 69.072C63.1738 69.3067 62.9498 69.4987 62.8005 69.648L60.4325 66.32C61.3712 65.4453 62.4592 64.7307 63.6965 64.176C64.9552 63.6 66.2992 63.312 67.7285 63.312C69.0298 63.312 70.1498 63.4613 71.0885 63.76C72.0272 64.0587 72.7952 64.4853 73.3925 65.04C74.0112 65.5733 74.4592 66.2347 74.7365 67.024C75.0352 67.792 75.1845 68.6667 75.1845 69.648ZM94.588 74.864C94.588 78.5973 93.8733 81.4667 92.444 83.472C91.036 85.456 89.084 86.448 86.588 86.448C84.092 86.448 82.1293 85.456 80.7 83.472C79.292 81.4667 78.588 78.5973 78.588 74.864C78.588 73.008 78.7693 71.3653 79.132 69.936C79.516 68.5067 80.06 67.3013 80.764 66.32C81.468 65.3387 82.3107 64.592 83.292 64.08C84.2733 63.568 85.372 63.312 86.588 63.312C89.084 63.312 91.036 64.3147 92.444 66.32C93.8733 68.304 94.588 71.152 94.588 74.864ZM89.724 74.864C89.724 73.7547 89.6707 72.752 89.564 71.856C89.4573 70.9387 89.2867 70.1493 89.052 69.488C88.8173 68.8267 88.4973 68.3147 88.092 67.952C87.6867 67.5893 87.1853 67.408 86.588 67.408C85.9907 67.408 85.4893 67.5893 85.084 67.952C84.7 68.3147 84.38 68.8267 84.124 69.488C83.8893 70.1493 83.7187 70.9387 83.612 71.856C83.5053 72.752 83.452 73.7547 83.452 74.864C83.452 75.9733 83.5053 76.9867 83.612 77.904C83.7187 78.8213 83.8893 79.6107 84.124 80.272C84.38 80.9333 84.7 81.4453 85.084 81.808C85.4893 82.1707 85.9907 82.352 86.588 82.352C87.1853 82.352 87.6867 82.1707 88.092 81.808C88.4973 81.4453 88.8173 80.9333 89.052 80.272C89.2867 79.6107 89.4573 78.8213 89.564 77.904C89.6707 76.9867 89.724 75.9733 89.724 74.864Z" fill="#1E212C"/>
</g>
<defs>
<filter id="filter0_d_2111_1789" x="0" y="0" width="156" height="156" filterUnits="userSpaceOnUse" color-interpolation-filters="sRGB">
<feFlood flood-opacity="0" result="BackgroundImageFix"/>
<feColorMatrix in="SourceAlpha" type="matrix" values="0 0 0 0 0 0 0 0 0 0 0 0 0 0 0 0 0 0 127 0" result="hardAlpha"/>
<feOffset dy="4"/>
<feGaussianBlur stdDeviation="2"/>
<feComposite in2="hardAlpha" operator="out"/>
<feColorMatrix type="matrix" values="0 0 0 0 0 0 0 0 0 0 0 0 0 0 0 0 0 0 0.25 0"/>
<feBlend mode="normal" in2="BackgroundImageFix" result="effect1_dropShadow_2111_1789"/>
<feBlend mode="normal" in="SourceGraphic" in2="effect1_dropShadow_2111_1789" result="shape"/>
</filter>
<clipPath id="clip0_2111_1789">
<rect width="148" height="148" fill="white" transform="translate(4)"/>
</clipPath>
</defs>
</svg>
